<?xml version="1.0" encoding="UTF-8" standalone="no"?>
<svg
   xmlns:dc="http://purl.org/dc/elements/1.1/"
   xmlns:cc="http://creativecommons.org/ns#"
   xmlns:rdf="http://www.w3.org/1999/02/22-rdf-syntax-ns#"
   xmlns:svg="http://www.w3.org/2000/svg"
   xmlns="http://www.w3.org/2000/svg"
   viewBox="2300 0 600 654"
   height="654"
   width="600"
   xml:space="preserve"
   id="svg2"
   version="1.1"><metadata
     id="metadata8"><rdf:RDF><cc:Work
         rdf:about=""><dc:format>image/svg+xml</dc:format><dc:type
           rdf:resource="http://purl.org/dc/dcmitype/StillImage" /></cc:Work></rdf:RDF></metadata><defs
     id="defs6" /><g
     transform="matrix(1.3333333,0,0,-1.3333333,0,1510)"
     id="g10"><g
       transform="scale(0.1)"
       id="g12"><g
         transform="scale(1.34969)"
         id="g14"><path
           id="path16"
           style="fill:#ffffff;fill-opacity:0;fill-rule:nonzero;stroke:none"
           d="M 0,0 H 16300 V 10861.7 H 0 V 0" /></g><path
         id="path18"
         style="fill:#cf213d;fill-opacity:1;fill-rule:nonzero;stroke:none"
         d="m 4462.39,8873.61 c 0,-1046.54 -848.39,-1894.93 -1894.93,-1894.93 -1046.55,0 -1894.937,848.39 -1894.937,1894.93 0,1046.54 848.387,1894.89 1894.937,1894.89 1046.54,0 1894.93,-848.35 1894.93,-1894.89" /><path
         id="path20"
         style="fill:#040606;fill-opacity:1;fill-rule:nonzero;stroke:none"
         d="m 1510.31,9507.55 c -20.46,1.13 -37.56,-15.18 -37.56,-35.67 0,-16.28 10.94,-30.43 26.7,-34.54 52.09,-13.59 170.54,-53.54 266.56,-151.96 -79.39,-54.42 -131.5,-145.75 -131.5,-249.28 0,-166.83 135.24,-302.07 302.06,-302.07 166.83,0 302.07,135.24 302.07,302.07 0,404.02 -574.4,462.92 -728.33,471.45" /><path
         id="path22"
         style="fill:#040606;fill-opacity:1;fill-rule:nonzero;stroke:none"
         d="m 3624.6,9507.55 c -153.93,-8.53 -728.33,-67.43 -728.33,-471.45 0,-166.83 135.24,-302.07 302.07,-302.07 166.83,0 302.07,135.24 302.07,302.07 0,103.53 -52.11,194.86 -131.51,249.28 96.03,98.42 214.48,138.37 266.57,151.96 15.75,4.11 26.7,18.26 26.7,34.54 0,20.49 -17.11,36.8 -37.57,35.67" /><path
         id="path24"
         style="fill:#040606;fill-opacity:1;fill-rule:nonzero;stroke:none"
         d="m 3087.24,7881.96 c -28.35,0 -56.06,14.12 -72.28,39.84 -6.47,10.13 -155.11,237.35 -447.5,237.35 -286.41,0 -441.94,-229.01 -448.42,-238.77 -26.02,-39.13 -78.89,-50.03 -118.14,-24.17 -39.25,25.85 -50.31,78.42 -24.62,117.78 8.42,12.91 210.57,315.88 591.18,315.88 389.3,0 583.98,-304.34 592.08,-317.3 24.98,-39.97 12.83,-92.64 -27.14,-117.61 -14.07,-8.79 -29.71,-13 -45.16,-13" /><path
         id="path26"
         style="fill:#f03f42;fill-opacity:1;fill-rule:nonzero;stroke:none"
         d="m 8678.66,8873.61 c 0,-1046.54 -848.39,-1894.93 -1894.93,-1894.93 -1046.54,0 -1894.93,848.39 -1894.93,1894.93 0,1046.54 848.39,1894.89 1894.93,1894.89 1046.54,0 1894.93,-848.35 1894.93,-1894.89" /><path
         id="path28"
         style="fill:#040606;fill-opacity:1;fill-rule:nonzero;stroke:none"
         d="m 6454.91,9036.1 c 0,-166.83 -135.24,-302.07 -302.06,-302.07 -166.83,0 -302.07,135.24 -302.07,302.07 0,166.82 135.24,302.06 302.07,302.06 166.82,0 302.06,-135.24 302.06,-302.06" /><path
         id="path30"
         style="fill:#040606;fill-opacity:1;fill-rule:nonzero;stroke:none"
         d="m 7112.54,9036.1 c 0,-166.83 135.24,-302.07 302.07,-302.07 166.83,0 302.07,135.24 302.07,302.07 0,166.82 -135.24,302.06 -302.07,302.06 -166.83,0 -302.07,-135.24 -302.07,-302.06" /><path
         id="path32"
         style="fill:#040606;fill-opacity:1;fill-rule:nonzero;stroke:none"
         d="m 7303.51,7881.96 c -28.34,0 -56.06,14.12 -72.28,39.84 -6.47,10.13 -155.11,237.35 -447.5,237.35 -289.21,0 -446.68,-236.09 -448.23,-238.47 -25.77,-39.49 -78.68,-50.58 -118.14,-24.82 -39.47,25.77 -50.58,78.66 -24.81,118.13 8.41,12.91 210.57,315.88 591.18,315.88 389.3,0 583.98,-304.34 592.08,-317.3 24.99,-39.97 12.84,-92.64 -27.14,-117.61 -14.07,-8.79 -29.71,-13 -45.16,-13" /><path
         id="path34"
         style="fill:#f47131;fill-opacity:1;fill-rule:nonzero;stroke:none"
         d="m 12894.9,8873.61 c 0,-1046.54 -848.4,-1894.93 -1894.9,-1894.93 -1046.54,0 -1894.93,848.39 -1894.93,1894.93 0,1046.54 848.39,1894.89 1894.93,1894.89 1046.5,0 1894.9,-848.35 1894.9,-1894.89" /><path
         id="path36"
         style="fill:#040606;fill-opacity:1;fill-rule:nonzero;stroke:none"
         d="m 10671.2,8873.61 c 0,-166.83 -135.3,-302.06 -302.1,-302.06 -166.8,0 -302,135.23 -302,302.06 0,166.83 135.2,302.07 302,302.07 166.8,0 302.1,-135.24 302.1,-302.07" /><path
         id="path38"
         style="fill:#040606;fill-opacity:1;fill-rule:nonzero;stroke:none"
         d="m 11328.8,8873.61 c 0,-166.83 135.3,-302.06 302.1,-302.06 166.8,0 302.1,135.23 302.1,302.06 0,166.83 -135.3,302.07 -302.1,302.07 -166.8,0 -302.1,-135.24 -302.1,-302.07" /><path
         id="path40"
         style="fill:#040606;fill-opacity:1;fill-rule:nonzero;stroke:none"
         d="m 11519.7,7881.97 h -1039.4 c -47.1,0 -85.4,38.23 -85.4,85.37 0,47.13 38.3,85.36 85.4,85.36 h 1039.4 c 47.1,0 85.4,-38.23 85.4,-85.36 0,-47.14 -38.3,-85.37 -85.4,-85.37" /><g
         transform="scale(1.04977)"
         id="g42"><path
           id="path44"
           style="fill:#eba722;fill-opacity:1;fill-rule:nonzero;stroke:none"
           d="m 16300,8452.93 c 0,-996.92 -808.2,-1805.09 -1805.1,-1805.09 -997,0 -1805.1,808.17 -1805.1,1805.09 0,996.93 808.1,1805.07 1805.1,1805.07 996.9,0 1805.1,-808.14 1805.1,-1805.07" /></g><path
         id="path46"
         style="fill:#040606;fill-opacity:1;fill-rule:nonzero;stroke:none"
         d="m 14887.5,9036.1 c 0,-166.83 -135.3,-302.07 -302.1,-302.07 -166.8,0 -302.1,135.24 -302.1,302.07 0,166.82 135.3,302.06 302.1,302.06 166.8,0 302.1,-135.24 302.1,-302.06" /><path
         id="path48"
         style="fill:#040606;fill-opacity:1;fill-rule:nonzero;stroke:none"
         d="m 15545.1,9036.1 c 0,-166.83 135.2,-302.07 302.1,-302.07 166.8,0 302,135.24 302,302.07 0,166.82 -135.2,302.06 -302,302.06 -166.9,0 -302.1,-135.24 -302.1,-302.06" /><path
         id="path50"
         style="fill:#040606;fill-opacity:1;fill-rule:nonzero;stroke:none"
         d="m 15216.3,7881.97 c -389.3,0 -584,304.34 -592.1,317.31 -25,39.97 -12.9,92.63 27.1,117.61 39.9,24.92 92.4,12.9 117.5,-26.84 6.4,-10.13 155.1,-237.35 447.5,-237.35 289.2,0 446.6,236.09 448.2,238.47 25.8,39.49 78.7,50.59 118.1,24.82 39.5,-25.78 50.6,-78.66 24.9,-118.14 -8.5,-12.9 -210.6,-315.88 -591.2,-315.88" /><g
         transform="scale(1.30844)"
         id="g52"><path
           id="path54"
           style="fill:#64c548;fill-opacity:1;fill-rule:nonzero;stroke:none"
           d="m 16300,6781.85 c 0,-799.84 -648.4,-1448.24 -1448.3,-1448.24 -799.8,0 -1448.2,648.4 -1448.2,1448.24 0,799.84 648.4,1448.24 1448.2,1448.24 799.9,0 1448.3,-648.4 1448.3,-1448.24" /></g><g
         transform="scale(1.17225)"
         id="g56"><path
           id="path58"
           style="fill:#040606;fill-opacity:1;fill-rule:nonzero;stroke:none"
           d="m 16283.7,7597.96 c -9.7,-7.36 -22.9,-8.37 -33.4,-2.48 -254.9,140.39 -530.4,68.82 -590.2,57.23 -1.9,-0.35 -3.8,-0.58 -5.8,-0.58 -11.5,0 -22.2,6.63 -27.4,17.34 -7.6,15.72 2.2,30.28 15.8,41.28 43.8,35.39 329.3,274.52 644.9,-67.06 12.4,-13.47 10.6,-34.74 -3.9,-45.73" /></g><g
         transform="scale(1.26106)"
         id="g60"><path
           id="path62"
           style="fill:#040606;fill-opacity:1;fill-rule:nonzero;stroke:none"
           d="m 15682.5,7062.84 c 9,-6.84 21.3,-7.78 31.1,-2.3 236.9,130.5 493,63.97 548.5,53.2 1.9,-0.33 3.6,-0.54 5.5,-0.54 10.7,0 20.7,6.16 25.4,16.11 7,14.62 -2,28.15 -14.6,38.37 -40.8,32.91 -306.1,255.19 -599.5,-62.33 -11.5,-12.52 -9.9,-32.29 3.6,-42.51" /></g><g
         transform="scale(1.23335)"
         id="g64"><path
           id="path66"
           style="fill:#040606;fill-opacity:1;fill-rule:nonzero;stroke:none"
           d="m 15211.7,6684.65 c 0,0 88.4,-394.45 544.2,-394.45 451.8,0 544.1,394.45 544.1,394.45 h -1088.3" /></g><path
         id="path68"
         style="fill:#f47131;fill-opacity:1;fill-rule:nonzero;stroke:none"
         d="M 13108.1,4339.2 H 8891.91 v 464.51 H 13108.1 V 4339.2" /><g
         transform="scale(1.06285)"
         id="g70"><path
           id="path72"
           style="fill:#eba722;fill-opacity:1;fill-rule:nonzero;stroke:none"
           d="m 16300,4082.62 h -3966.9 v 437.05 H 16300 v -437.05" /></g><g
         transform="scale(1.32151)"
         id="g74"><path
           id="path76"
           style="fill:#64c548;fill-opacity:1;fill-rule:nonzero;stroke:none"
           d="m 16173.4,3283.52 h -3063.8 v 351.5 h 3063.8 c 69.9,0 126.6,-56.71 126.6,-126.68 v -98.15 c 0,-69.99 -56.7,-126.67 -126.6,-126.67" /></g><path
         id="path78"
         style="fill:#f03f42;fill-opacity:1;fill-rule:nonzero;stroke:none"
         d="M 8891.82,4339.2 H 4675.64 v 464.51 H 8891.82 V 4339.2" /><path
         id="path80"
         style="fill:#cf213d;fill-opacity:1;fill-rule:nonzero;stroke:none"
         d="M 4675.55,4339.2 H 626.742 c -92.441,0 -167.379,74.9 -167.379,167.4 v 129.7 c 0,92.47 74.938,167.41 167.379,167.41 H 4675.55 V 4339.2" /><path
         id="path82"
         style="fill:#f1f1ef;fill-opacity:1;fill-rule:nonzero;stroke:none"
         d="m 11680,4571.5 c 0,-375.6 -304.4,-680 -680,-680 -375.6,0 -680,304.4 -680,680 0,375.51 304.4,679.96 680,679.96 375.6,0 680,-304.45 680,-679.96" /><path
         id="path84"
         style="fill:#ffffff;fill-opacity:1;fill-rule:nonzero;stroke:none"
         d="m 11497.3,4571.5 c 0,-274.7 -222.7,-497.3 -497.3,-497.3 -274.6,0 -497.3,222.6 -497.3,497.3 0,274.6 222.7,497.24 497.3,497.24 274.6,0 497.3,-222.64 497.3,-497.24" /></g></g></svg>